<svg width="261" height="17" viewBox="0 0 261 17" fill="none" xmlns="http://www.w3.org/2000/svg">
<g clip-path="url(#clip0_100_201)">
<path d="M17.4967 17L4.77138 7.39182e-06L0.638915 7.62939e-06L0.638916 5.05642L9.62538 17L17.4967 17Z" fill="black"/>
<path d="M31.3372 17L18.6119 3.36218e-06L10.7405 3.8147e-06L23.4659 17L31.3372 17Z" fill="black"/>
<path d="M45.2444 17L32.4535 1.45483e-06L24.5821 1.90735e-06L37.3075 17L45.2444 17Z" fill="black"/>
<path d="M59.0829 17L46.292 9.08422e-06L38.4206 9.53674e-06L51.2116 17L59.0829 17Z" fill="black"/>
<path d="M72.9246 17L60.1992 1.09878e-05L52.2623 1.14441e-05L65.0532 17L72.9246 17Z" fill="black"/>
<path d="M86.7652 17L74.0398 9.08422e-06L66.1684 9.53674e-06L78.8938 17L86.7652 17Z" fill="black"/>
<path d="M100.67 17L87.8793 7.17688e-06L80.0079 7.62939e-06L92.7333 17L100.67 17Z" fill="black"/>
<path d="M114.512 17L101.721 9.08422e-06L93.8496 9.53674e-06L106.641 17L114.512 17Z" fill="black"/>
<path d="M123.761 17L123.761 10.8974L115.628 1.09878e-05L107.691 1.14441e-05L120.482 17L123.761 17Z" fill="black"/>
<path d="M45.1122 17L32.3869 5.48447e-06L28.2544 5.72205e-06L28.2544 5.05641L37.2409 17L45.1122 17Z" fill="black"/>
<path d="M58.9526 17L46.2273 9.08422e-06L38.3559 9.53674e-06L51.0813 17L58.9526 17Z" fill="black"/>
<path d="M72.8601 17L60.0691 1.09916e-05L52.1977 1.14441e-05L64.9887 17L72.8601 17Z" fill="black"/>
<path d="M86.6982 17L73.9072 9.08422e-06L66.0359 9.53674e-06L78.8268 17L86.6982 17Z" fill="black"/>
<path d="M100.54 17L87.8148 7.17688e-06L79.9434 7.62939e-06L92.6688 17L100.54 17Z" fill="black"/>
<path d="M114.381 17L101.655 9.08422e-06L93.784 9.53674e-06L106.509 17L114.381 17Z" fill="black"/>
<path d="M128.286 17L115.495 1.09916e-05L107.623 1.14441e-05L120.414 17L128.286 17Z" fill="black"/>
<path d="M135.437 17L135.437 8.1077L129.337 9.08422e-06L121.465 9.53674e-06L134.256 17" fill="black"/>
</g>
<g clip-path="url(#clip1_100_201)">
<path d="M143.061 17L130.335 7.39182e-06L126.203 7.62939e-06L126.203 5.05642L135.189 17L143.061 17Z" fill="black"/>
<path d="M156.902 17L144.177 3.36218e-06L136.305 3.8147e-06L149.031 17L156.902 17Z" fill="black"/>
<path d="M170.809 17L158.018 1.45483e-06L150.146 1.90735e-06L162.872 17L170.809 17Z" fill="black"/>
<path d="M184.647 17L171.856 9.08422e-06L163.984 9.53674e-06L176.775 17L184.647 17Z" fill="black"/>
<path d="M198.489 17L185.764 1.09878e-05L177.827 1.14441e-05L190.618 17L198.489 17Z" fill="black"/>
<path d="M212.33 17L199.604 9.08422e-06L191.733 9.53674e-06L204.458 17L212.33 17Z" fill="black"/>
<path d="M226.235 17L213.444 7.17688e-06L205.572 7.62939e-06L218.298 17L226.235 17Z" fill="black"/>
<path d="M240.075 17L227.284 9.08422e-06L219.413 9.53674e-06L232.204 17L240.075 17Z" fill="black"/>
<path d="M249.326 17L249.326 10.8974L241.192 1.09878e-05L233.255 1.14441e-05L246.046 17L249.326 17Z" fill="black"/>
<path d="M170.676 17L157.951 5.48447e-06L153.818 5.72205e-06L153.818 5.05641L162.805 17L170.676 17Z" fill="black"/>
<path d="M184.517 17L171.792 9.08422e-06L163.92 9.53674e-06L176.646 17L184.517 17Z" fill="black"/>
<path d="M198.424 17L185.633 1.09916e-05L177.762 1.14441e-05L190.553 17L198.424 17Z" fill="black"/>
<path d="M212.262 17L199.471 9.08422e-06L191.6 9.53674e-06L204.391 17L212.262 17Z" fill="black"/>
<path d="M226.103 17L213.377 7.17687e-06L205.506 7.62939e-06L218.231 17L226.103 17Z" fill="black"/>
<path d="M239.945 17L227.22 9.08422e-06L219.349 9.53674e-06L232.074 17L239.945 17Z" fill="black"/>
<path d="M253.85 17L241.059 1.09916e-05L233.187 1.14441e-05L245.978 17L253.85 17Z" fill="black"/>
<path d="M261.001 17L261.001 8.1077L254.9 9.08422e-06L247.029 9.53674e-06L259.82 17" fill="black"/>
</g>
<defs>
<clipPath id="clip0_100_201">
<rect width="17" height="134.797" fill="white" transform="translate(0.638916 17) rotate(-90)"/>
</clipPath>
<clipPath id="clip1_100_201">
<rect width="17" height="134.797" fill="white" transform="translate(126.203 17) rotate(-90)"/>
</clipPath>
</defs>
</svg>
