<svg width="177" height="64" viewBox="0 0 177 64" fill="none" xmlns="http://www.w3.org/2000/svg">
<g clip-path="url(#clip0_100_316)">
<path d="M19.5244 63.0399C14.2506 62.8304 9.93574 61.3877 6.56191 58.7081C5.91802 58.1962 4.38373 56.6614 3.86899 56.0141C2.50086 54.2942 1.5707 52.6204 0.950283 50.7632C-0.958771 45.0466 0.0237425 37.545 3.76062 29.3121C6.96016 22.2637 11.8972 15.2731 20.5106 5.5912C21.7794 4.16654 25.5578 0 25.5821 0C25.5912 0 25.3853 0.356607 25.1261 0.790888C22.8865 4.54122 20.9702 8.95873 19.9263 12.7831C18.2493 18.9196 18.4516 24.1858 20.5187 28.2693C21.9446 31.0825 24.3892 33.5193 27.1381 34.8663C31.9505 37.2236 38.9962 37.4186 47.6006 35.4369C48.193 35.2996 77.5478 27.5091 112.834 18.1243C148.12 8.73846 176.995 1.06533 177 1.07165C177.01 1.07978 95.0202 36.1546 52.4581 54.3511C45.7177 57.232 43.9152 57.9597 40.7463 59.072C32.6459 61.9159 25.3898 63.2728 19.5244 63.0399Z" fill="black"/>
</g>
<defs>
<clipPath id="clip0_100_316">
<rect width="177" height="63.0655" fill="white"/>
</clipPath>
</defs>
</svg>
