<svg width="187" height="59" viewBox="0 0 187 59" fill="none" xmlns="http://www.w3.org/2000/svg">
<path d="M26.4841 38.0507C27.5528 36.5547 28.1942 34.6305 28.1942 32.0653C28.1942 29.5001 27.5528 27.5759 26.4841 26.0799C25.4154 24.5834 23.9189 23.942 21.9951 23.942C20.0709 23.942 18.5749 24.5834 17.5057 26.0799C16.437 27.5759 15.7956 29.5001 15.7956 32.0653C15.7956 34.63 16.437 36.5547 17.5057 38.0507C18.5744 39.5472 20.0709 40.1886 21.9951 40.1886C23.9189 40.1886 25.4154 39.333 26.4841 38.0507ZM29.477 41.4705C27.7669 43.181 25.2017 44.2497 21.9956 44.2497C18.789 44.2497 16.2234 43.3947 14.5137 41.4705C12.1627 39.333 11.0935 36.1269 11.0935 32.0653C11.0935 27.7895 12.1627 24.7971 14.5137 22.6592C16.2239 20.9491 18.7895 19.8804 21.9956 19.8804C25.2017 19.8804 27.7674 20.7354 29.477 22.6592C31.8285 24.7971 32.8972 28.0032 32.8972 32.0653C32.8972 36.1269 31.8285 39.333 29.477 41.4705Z" fill="black"/>
<path d="M43.1579 20.3071C43.3715 20.3071 43.7993 20.3071 44.0129 20.3071V23.941C43.7988 23.941 43.3715 23.941 42.7301 23.941C42.0887 23.941 41.6614 24.1547 41.4473 24.3688C41.2336 24.5824 41.0195 25.0097 41.0195 25.2238V26.7203H44.0125V29.9264H41.0195V43.6078H36.5301V29.9264H34.3922V26.7203H36.7442V25.6516C36.7442 23.941 36.9579 22.6587 37.5993 21.8036C38.2407 20.7349 39.7367 20.3076 42.3019 20.3076C42.7306 20.3071 42.9442 20.3071 43.1579 20.3071Z" fill="black"/>
<path d="M53.8464 20.3071C54.0605 20.3071 54.4878 20.3071 54.7014 20.3071V23.941C54.4878 23.941 54.06 23.941 53.4186 23.941C52.7777 23.941 52.3499 24.1547 52.1363 24.3688C51.9226 24.5824 51.709 25.0097 51.709 25.2238V26.7203H54.7014V29.9264H51.709V43.6078H47.2196V29.9264H45.0817V26.7203H47.4332V25.6516C47.4332 23.941 47.6469 22.6587 48.2883 21.8036C48.9292 20.7349 50.4262 20.3076 52.9913 20.3076C53.2054 20.3071 53.6327 20.3071 53.8464 20.3071Z" fill="black"/>
<path d="M64.7486 32.4923H55.9839V36.7671H64.7486V32.4923Z" fill="black"/>
<path d="M71.3742 20.5212L74.3672 33.7753L75.0081 37.4087L75.6495 33.7753L78.4284 20.5212H83.345L86.1243 33.7753L86.7657 37.4087L87.4067 33.7753L90.6133 20.5212H95.53L88.9027 43.3946H84.4137L81.6349 30.1405L80.7799 25.6521L79.9248 30.1405L77.3596 43.3946H72.8707L66.2439 20.5212H71.3742Z" fill="black"/>
<path d="M110.066 26.7206C110.921 27.1479 111.563 27.5752 112.204 28.4303C112.632 29.0717 112.846 29.7131 113.059 30.354C113.059 30.9959 113.273 32.0646 113.273 33.5606V43.6077H108.784V33.347C108.784 32.4928 108.57 31.6369 108.356 31.2096C107.929 30.3545 107.287 29.9267 106.005 29.9267C104.936 29.9267 103.867 30.3545 103.44 30.9959C102.799 31.851 102.585 32.9197 102.585 34.4161V43.6081H98.0955V20.7352H102.585V28.858C103.226 27.7893 103.867 27.1479 104.723 26.7206C105.577 26.2929 106.432 26.0792 107.287 26.0792C108.356 26.0792 109.211 26.2929 110.066 26.7206Z" fill="black"/>
<path d="M117.335 26.5071H121.824V43.3946H117.335V26.5071ZM121.824 24.5829H117.335V20.5212H121.824V24.5829Z" fill="black"/>
<path d="M124.39 29.9275V26.7214H126.74V22.0183H131.016V26.7214H133.794V29.9275H131.016V38.9063C131.016 39.5472 131.016 39.9745 131.229 40.1886C131.442 40.4018 131.871 40.4018 132.94 40.4018C133.153 40.4018 133.153 40.4018 133.367 40.4018C133.58 40.4018 133.58 40.4018 133.794 40.4018V43.6084H131.657C129.52 43.6084 128.236 43.3947 127.382 42.5397C126.954 42.1119 126.74 41.2569 126.74 40.1886V29.7138L124.39 29.9275Z" fill="black"/>
<path d="M141.277 30.7821C140.636 31.4231 140.209 32.2777 139.995 33.3464H147.69C147.69 32.2777 147.262 31.209 146.408 30.5675C145.766 29.9261 144.912 29.7125 143.843 29.7125C142.774 29.7125 141.918 30.1398 141.277 30.7821ZM147.903 26.9337C149.187 27.361 150.041 28.216 150.897 29.4988C151.538 30.5675 151.965 31.6362 152.179 32.9191C152.393 33.7746 152.393 34.8433 152.393 36.3393H139.994C139.994 38.0494 140.635 39.3318 141.704 39.9732C142.345 40.4005 143.201 40.6151 144.055 40.6151C145.123 40.6151 145.979 40.4005 146.407 39.7591C146.834 39.5459 147.048 39.1181 147.261 38.6913H151.751C151.537 39.7591 151.11 40.6151 150.041 41.6833C148.545 43.3934 146.407 44.2485 143.628 44.2485C141.276 44.2485 139.352 43.6071 137.643 42.1106C135.932 40.8278 135.078 38.4772 135.078 35.2701C135.078 32.2772 135.932 30.1393 137.429 28.4297C138.924 26.9337 141.062 26.0786 143.414 26.0786C145.339 26.0786 146.621 26.2923 147.903 26.9337Z" fill="black"/>
<path d="M162.226 14.7498V16.8876H158.592V27.1483H156.027V16.8876H152.18V14.7498H162.226Z" fill="black"/>
<path d="M172.059 14.7498H175.907V27.1483H173.342V18.8114C173.342 18.5973 173.342 18.17 173.342 17.7427C173.342 17.3149 173.342 16.8876 173.342 16.674L170.99 27.1483H168.425L166.074 16.674C166.074 16.8881 166.074 17.3149 166.074 17.7427C166.074 18.1705 166.074 18.5977 166.074 18.8114V27.1483H163.723V14.7498H167.571L169.922 24.5831L172.059 14.7498Z" fill="black"/>
</svg>
